<?xml version="1.0" encoding="UTF-8"?>
<!DOCTYPE svg PUBLIC "-//W3C//DTD SVG 1.1//EN" "http://www.w3.org/Graphics/SVG/1.1/DTD/svg11.dtd">
<!-- Creator: CorelDRAW -->
<svg xmlns="http://www.w3.org/2000/svg" xml:space="preserve" width="6.7876mm" height="6.43mm" style="shape-rendering:geometricPrecision; text-rendering:geometricPrecision; image-rendering:optimizeQuality; fill-rule:evenodd; clip-rule:evenodd"
viewBox="0 0 0.338272 0.32045"
 xmlns:xlink="http://www.w3.org/1999/xlink">
 <defs>
  <style type="text/css">
   <![CDATA[
    .fil0 {fill:#24292E}
   ]]>
  </style>
 </defs>
 <g id="Plan_x0020_1">
  <metadata id="CorelCorpID_0Corel-Layer"/>
  <path class="fil0" d="M0.238743 0.192135l0.0995289 0.0908324 -0.0342129 0.0374822 -0.0989607 -0.090324c-0.0214447,0.0162218 -0.0481672,0.0258453 -0.0771173,0.0258453 -0.0352645,0 -0.0672596,-0.014343 -0.0904536,-0.037527l-3.48857e-005 3.48857e-005c-0.0231591,-0.0231591 -0.0374922,-0.0551643 -0.0374922,-0.0904935 0,-0.0353292 0.014333,-0.0673344 0.0374922,-0.0904935 0.0231591,-0.0231591 0.0551593,-0.0374922 0.0904885,-0.0374922 0.0353292,0 0.0673344,0.014333 0.0904935,0.0374922 0.0231591,0.0231591 0.0374922,0.0551643 0.0374922,0.0904935 0,0.0233684 -0.00626946,0.0452866 -0.0172236,0.0641498zm-0.046692 -0.12822c-0.0163913,-0.0163913 -0.039052,-0.026538 -0.0640701,-0.026538 -0.025018,0 -0.0476738,0.0101468 -0.0640651,0.026538 -0.0163913,0.0163913 -0.026538,0.039052 -0.026538,0.0640701 0,0.025018 0.0101468,0.0476788 0.026538,0.0640701l0 6.97714e-005c0.0163415,0.0163464 0.0390022,0.0264683 0.0640651,0.0264683 0.025023,0 0.0476788,-0.0101468 0.0640701,-0.026538 0.0163913,-0.0163913 0.026538,-0.039052 0.026538,-0.0640701 0,-0.025018 -0.0101468,-0.0476788 -0.026538,-0.0640701z"/>
 </g>
</svg>
